<?xml version="1.0" encoding="UTF-8"?>
<svg id="Ebene_1" data-name="Ebene 1" xmlns="http://www.w3.org/2000/svg" viewBox="0 0 192 192">
  <defs>
    <style>
      .cls-1 {
        fill: #559cad;
      }

      .cls-1, .cls-2, .cls-3 {
        stroke-width: 0px;
      }

      .cls-2 {
        fill: #454372;
      }

      .cls-3 {
        fill: #fff;
      }
    </style>
  </defs>
  <rect class="cls-3" width="192" height="192"/>
  <g>
    <path class="cls-2" d="M176.5,64.12c0-12.97-5.05-25.16-14.22-34.34-9.17-9.17-21.36-14.22-34.34-14.22s-25.16,5.05-34.34,14.22c-9.17,9.17-14.22,21.37-14.22,34.34s5.03,25.11,14.16,34.27h0c7.88,7.88,12.22,18.36,12.22,29.51s-4.34,21.63-12.22,29.51c-16.27,16.27-42.75,16.27-59.02,0-16.27-16.27-16.27-42.75,0-59.02l-.04-.04c.08-.07.16-.13.24-.21,1.26-1.39,1.16-3.53-.22-4.8-1.39-1.26-3.53-1.16-4.8.22-18.93,18.93-18.93,49.74,0,68.67,9.47,9.47,21.9,14.2,34.34,14.2s24.87-4.73,34.34-14.2c9.17-9.17,14.22-21.37,14.22-34.34s-5.03-25.11-14.16-34.27h0c-7.88-7.88-12.22-18.36-12.22-29.51s4.34-21.63,12.22-29.51c7.88-7.88,18.36-12.22,29.51-12.22s21.63,4.34,29.51,12.22c7.88,7.88,12.22,18.36,12.22,29.51s-4.34,21.63-12.22,29.51c-1.26,1.39-1.16,3.53.22,4.8,1.31,1.19,3.28,1.15,4.56-.01l.04.04c9.17-9.17,14.22-21.37,14.22-34.34Z"/>
    <path class="cls-1" d="M153.63,38.55c-14.13-14.13-37.11-14.12-51.23,0-14.12,14.13-14.12,37.11,0,51.23,7.06,7.06,16.34,10.59,25.62,10.59s18.55-3.53,25.62-10.59c14.12-14.13,14.12-37.11,0-51.23ZM151.7,87.85c-13.06,13.06-34.31,13.06-47.37,0-13.06-13.06-13.06-34.31,0-47.38,6.53-6.53,15.11-9.8,23.69-9.8s17.16,3.27,23.69,9.8c13.06,13.06,13.06,34.31,0,47.38Z"/>
    <path class="cls-1" d="M38.46,153.72c7.06,7.06,16.34,10.59,25.62,10.59s18.55-3.53,25.62-10.59c6.84-6.84,10.61-15.94,10.61-25.62s-3.77-18.77-10.61-25.62c-14.13-14.13-37.11-14.12-51.23,0-14.12,14.13-14.12,37.11,0,51.23ZM40.39,104.41c6.53-6.53,15.11-9.8,23.69-9.8s17.16,3.27,23.69,9.8c6.33,6.33,9.81,14.74,9.81,23.69s-3.49,17.36-9.81,23.69c-13.06,13.06-34.31,13.06-47.37,0-13.06-13.06-13.06-34.31,0-47.38Z"/>
  </g>
</svg>