<?xml version="1.0" encoding="UTF-8"?>
<svg id="Ebene_1" data-name="Ebene 1" xmlns="http://www.w3.org/2000/svg" viewBox="0 180 841.89 235.28">
  <defs>
    <style>
      .cls-1 {
        fill: #559cad;
      }

      .cls-1, .cls-2 {
        stroke-width: 0px;
      }

      .cls-2 {
        fill: #302a4d;
      }
    </style>
  </defs>
  <polygon class="cls-2" points="96.44 295.21 84.48 345.11 93.56 345.11 105.51 295.21 96.44 295.21"/>
  <path class="cls-2" d="M148.2,295.21l-8.01,34.06c-.96-2.74-2.08-5.64-3.38-8.71-1.29-3.07-2.63-6.13-4.02-9.18-1.39-3.05-2.81-5.96-4.27-8.75-1.46-2.78-2.86-5.26-4.2-7.42h-7.29l-11.95,49.9h8.93l8.73-36.43c1.44,2.54,2.86,5.34,4.27,8.39,1.41,3.05,2.78,6.18,4.1,9.4,1.32,3.22,2.56,6.43,3.73,9.65,1.17,3.22,2.22,6.22,3.13,9h7.29l11.95-49.9h-9Z"/>
  <path class="cls-2" d="M189.96,295.32c-1.2-.36-2.48-.66-3.85-.9-1.37-.24-2.8-.36-4.28-.36-3.22,0-6.04.38-8.46,1.15-2.42.77-4.46,1.82-6.12,3.17-1.66,1.34-2.9,2.94-3.74,4.79-.84,1.85-1.26,3.88-1.26,6.08,0,1.82.25,3.41.76,4.75.5,1.34,1.19,2.52,2.05,3.53.86,1.01,1.86,1.91,2.99,2.7,1.13.79,2.32,1.5,3.56,2.12,1.15.62,2.24,1.21,3.28,1.76,1.03.55,1.96,1.14,2.77,1.76.82.62,1.46,1.33,1.94,2.12.48.79.72,1.74.72,2.84,0,1.49-.31,2.72-.94,3.71-.62.98-1.45,1.76-2.48,2.34-1.03.58-2.18.98-3.46,1.22-1.27.24-2.56.36-3.85.36s-2.62-.12-3.82-.36c-1.2-.24-2.3-.54-3.31-.9-1.01-.36-1.91-.76-2.7-1.19-.79-.43-1.43-.82-1.91-1.15l-4.03,7.13c.53.38,1.26.82,2.2,1.3.94.48,2.05.94,3.35,1.37,1.3.43,2.77.79,4.43,1.08,1.66.29,3.47.43,5.44.43,2.98,0,5.71-.34,8.21-1.01,2.5-.67,4.66-1.67,6.48-2.99,1.82-1.32,3.24-2.99,4.25-5s1.51-4.37,1.51-7.06c0-1.92-.3-3.56-.9-4.93-.6-1.37-1.4-2.58-2.41-3.64-1.01-1.06-2.17-1.99-3.49-2.81-1.32-.82-2.72-1.63-4.21-2.45-1.01-.58-1.94-1.09-2.81-1.55-.86-.46-1.62-.96-2.27-1.51-.65-.55-1.15-1.19-1.51-1.91-.36-.72-.54-1.63-.54-2.74,0-1.2.25-2.24.76-3.13.5-.89,1.2-1.61,2.09-2.16.89-.55,1.92-.96,3.1-1.22,1.18-.26,2.41-.4,3.71-.4,2.16,0,4.14.29,5.94.86,1.8.58,3.2,1.27,4.21,2.09l3.96-6.91c-.53-.38-1.25-.79-2.16-1.22-.91-.43-1.97-.83-3.17-1.19Z"/>
  <polygon class="cls-2" points="241.66 295.21 202.85 295.21 201.05 302.85 215.88 302.85 205.73 345.11 214.8 345.11 224.96 302.85 239.79 302.85 241.66 295.21"/>
  <path class="cls-2" d="M265.82,295.21h-8.44c-2.5,3.55-4.99,7.19-7.46,10.91-2.48,3.72-4.97,7.62-7.5,11.7-2.52,4.08-5.12,8.38-7.79,12.89-2.67,4.51-5.47,9.31-8.4,14.4h9.72c1.12-2.1,2.22-4.13,3.3-6.07,1.08-1.94,2.15-3.86,3.19-5.74h20.35c.19,1.87.38,3.8.57,5.79.18,1.99.33,4,.45,6.02h9.14c-1.01-9.17-2.07-17.99-3.18-26.46-1.11-8.47-2.43-16.28-3.98-23.44ZM246.43,326.1c2.5-4.36,4.86-8.31,7.09-11.83,2.23-3.52,4.26-6.71,6.1-9.55.53,3.69,1.01,7.33,1.43,10.9.42,3.58.76,7.07,1.02,10.48h-15.64Z"/>
  <path class="cls-2" d="M313.71,329.27c-.96-2.74-2.08-5.64-3.38-8.71-1.29-3.07-2.63-6.13-4.02-9.18-1.39-3.05-2.81-5.96-4.27-8.75-1.46-2.78-2.86-5.26-4.2-7.42h-7.29l-11.95,49.9h8.93l8.73-36.43c1.44,2.54,2.86,5.34,4.27,8.39,1.41,3.05,2.78,6.18,4.1,9.4,1.32,3.22,2.56,6.43,3.73,9.65,1.17,3.22,2.22,6.22,3.13,9h7.29l11.95-49.9h-9l-8.01,34.06Z"/>
  <path class="cls-2" d="M587.38,257.57c.89-.55,1.92-.96,3.1-1.22,1.18-.26,2.41-.4,3.71-.4,2.16,0,4.14.29,5.94.86,1.8.58,3.2,1.27,4.21,2.09l3.96-6.91c-.53-.38-1.25-.79-2.16-1.22-.91-.43-1.97-.83-3.17-1.19-1.2-.36-2.48-.66-3.85-.9-1.37-.24-2.8-.36-4.28-.36-3.22,0-6.04.38-8.46,1.15-2.42.77-4.46,1.82-6.12,3.17-1.66,1.34-2.91,2.94-3.74,4.79-.84,1.85-1.26,3.88-1.26,6.08,0,1.82.25,3.41.76,4.75.5,1.34,1.19,2.52,2.05,3.53.86,1.01,1.86,1.91,2.99,2.7,1.13.79,2.32,1.5,3.56,2.12,1.15.62,2.24,1.21,3.28,1.76,1.03.55,1.96,1.14,2.77,1.76.82.62,1.46,1.33,1.94,2.12.48.79.72,1.74.72,2.84,0,1.49-.31,2.72-.94,3.71-.62.98-1.45,1.76-2.48,2.34s-2.18.98-3.46,1.22l-1.52.3-37.73.02c14.21-20.77,12.12-49.43-6.31-67.86-10.08-10.08-23.48-15.63-37.74-15.63s-27.66,5.55-37.74,15.63c-10.08,10.08-15.63,23.49-15.63,37.74s5.53,27.6,15.57,37.67h0c17.89,17.89,17.89,46.99,0,64.88s-46.99,17.89-64.88,0c-8.67-8.67-13.44-20.19-13.44-32.44s4.77-23.77,13.44-32.44l-5.01-5.01.05-.09h-.14s-.21-.21-.21-.21c-.07.07-.13.14-.2.21l-43.65.03h0s-12.87,0-12.87,0l-1.8,7.63h14.67s.17,0,.17,0l-10.15,42.26h9.07l10.15-42.26h1.09s13.74,0,13.74,0h0s13.28,0,13.28,0c-5.93,8.75-9.13,19.06-9.13,29.87,0,14.26,5.55,27.66,15.63,37.74s24.07,15.61,37.74,15.61,27.34-5.2,37.74-15.61c20.79-20.79,20.81-54.6.06-75.42h0c-8.67-8.67-13.44-20.19-13.44-32.44s4.77-23.77,13.44-32.44c8.67-8.66,20.19-13.44,32.44-13.44s23.77,4.77,32.44,13.44c17.89,17.89,17.89,46.99,0,64.88l5.3,5.3s0,0,.01-.01v.04h38.6c.88.06,1.79.09,2.74.09,2.98,0,5.71-.34,8.21-1.01,2.5-.67,4.66-1.67,6.48-2.99,1.82-1.32,3.24-2.99,4.25-5s1.51-4.37,1.51-7.06c0-1.92-.3-3.56-.9-4.93-.6-1.37-1.4-2.58-2.41-3.64-1.01-1.06-2.17-1.99-3.49-2.81-1.32-.82-2.72-1.63-4.21-2.45-1.01-.58-1.94-1.09-2.81-1.55-.86-.46-1.62-.96-2.27-1.51-.65-.55-1.15-1.19-1.51-1.91-.36-.72-.54-1.63-.54-2.74,0-1.2.25-2.24.76-3.13.5-.89,1.2-1.61,2.09-2.16Z"/>
  <path class="cls-2" d="M646.71,252.5c-3.19-2.35-7.79-3.53-13.79-3.53-2.02,0-4.18.08-6.48.25-2.3.17-4.61.49-6.91.97l-11.74,49.18h9.09l4.21-17.64h3.89c3.89,0,7.46-.35,10.7-1.04,3.24-.7,6.03-1.81,8.36-3.35,2.33-1.54,4.16-3.52,5.48-5.94,1.32-2.42,1.98-5.36,1.98-8.82,0-4.37-1.6-7.73-4.79-10.08ZM640.84,268.66c-.86,1.37-2.01,2.45-3.44,3.24-1.44.79-3.08,1.36-4.95,1.69-1.87.34-3.8.5-5.81.5h-3.66l4.03-17.21c.82-.1,1.63-.17,2.45-.22.82-.05,1.68-.07,2.59-.07,3.12,0,5.58.53,7.38,1.58,1.8,1.06,2.7,2.81,2.7,5.26,0,2.11-.43,3.85-1.29,5.22Z"/>
  <polygon class="cls-2" points="672.38 249.47 663.3 249.47 651.35 299.37 682.53 299.37 684.33 291.74 662.25 291.74 672.38 249.47"/>
  <polygon class="cls-2" points="689.94 299.37 699.02 299.37 710.97 249.47 701.89 249.47 689.94 299.37"/>
  <polygon class="cls-2" points="718.6 249.47 716.8 257.1 731.63 257.1 721.48 299.37 730.55 299.37 740.7 257.1 755.53 257.1 757.41 249.47 718.6 249.47"/>
  <path class="cls-1" d="M531.37,234.49c-15.52-15.53-40.79-15.53-56.32,0-15.53,15.53-15.53,40.79,0,56.32,7.76,7.76,17.96,11.65,28.16,11.65s20.4-3.88,28.16-11.65c15.53-15.53,15.53-40.79,0-56.32ZM529.25,288.68c-14.36,14.36-37.72,14.36-52.08,0-14.36-14.36-14.36-37.72,0-52.08,7.18-7.18,16.61-10.77,26.04-10.77s18.86,3.59,26.04,10.77c14.36,14.36,14.36,37.72,0,52.08Z"/>
  <path class="cls-1" d="M404.77,361.08c7.76,7.76,17.96,11.65,28.16,11.65s20.39-3.88,28.16-11.65c15.53-15.53,15.53-40.79,0-56.32-15.53-15.53-40.79-15.53-56.32,0-15.53,15.53-15.53,40.79,0,56.32ZM406.9,306.89c7.18-7.18,16.61-10.77,26.04-10.77s18.86,3.59,26.04,10.77c14.36,14.36,14.36,37.72,0,52.08-14.36,14.35-37.72,14.36-52.08,0-14.36-14.36-14.36-37.72,0-52.08Z"/>
</svg>